<svg xmlns="http://www.w3.org/2000/svg" viewBox="0 0 36.29 27.92"><defs><style>.cls-1{fill:#0a0a0a;}</style></defs><g id="Layer_2" data-name="Layer 2"><g id="Layer_1-2" data-name="Layer 1"><g id="_211634_camera_icon" data-name=" 211634 camera icon"><path id="Path_119" data-name="Path 119" class="cls-1" d="M33.36,4.45H27.47L24,.89l0,0h0a2.83,2.83,0,0,0-2-.86H14.54A2.85,2.85,0,0,0,12.4,1h0L9,4.45h-6A2.9,2.9,0,0,0,0,7.32V25a2.94,2.94,0,0,0,2.93,2.94H33.36A2.94,2.94,0,0,0,36.29,25V7.35a2.9,2.9,0,0,0-2.9-2.9ZM18.15,23.51a8.08,8.08,0,1,1,8.05-8.1v0a8.09,8.09,0,0,1-8.07,8.08ZM32.81,9.12A1.24,1.24,0,0,1,31.57,7.9a1.23,1.23,0,1,1,2.46,0h0a1.24,1.24,0,0,1-1.22,1.23Z"/><path id="Path_120" data-name="Path 120" class="cls-1" d="M18.15,9.33a6.11,6.11,0,1,0,6.08,6.12v0a6.08,6.08,0,0,0-6.08-6.1Z"/></g></g></g></svg>