<svg xmlns="http://www.w3.org/2000/svg" xmlns:xlink="http://www.w3.org/1999/xlink" viewBox="0 0 22.88 34.67"><defs><style>.cls-1{fill:none;}.cls-2{clip-path:url(#clip-path);}.cls-3{fill:#0a0a0a;}</style><clipPath id="clip-path" transform="translate(0)"><rect class="cls-1" width="22.89" height="34.68"/></clipPath></defs><g id="Layer_2" data-name="Layer 2"><g id="Layer_1-2" data-name="Layer 1"><g id="Group_119" data-name="Group 119"><g class="cls-2"><g id="Group_113" data-name="Group 113"><path id="Path_75" data-name="Path 75" class="cls-3" d="M3.28,13.53A2.82,2.82,0,1,0,.47,10.67a2.82,2.82,0,0,0,2.81,2.86h0" transform="translate(0)"/><path id="Path_76" data-name="Path 76" class="cls-3" d="M19,6.89V25.17c0,.13,0,.18-.18.18H14.92c-.14,0-.18-.06-.18-.18V19.49a.5.5,0,0,0-.15-.38l-4.43-4.42s-.1-.07-.08-.13.09,0,.14,0h3.12a.43.43,0,0,1,.32.14l2.74,2.74c.15.15.15.15.3,0l1.37-1.37c.15-.15.15-.15,0-.3L14.64,12.3a.39.39,0,0,0-.32-.13H7.79a.39.39,0,0,0-.32.13L4.66,15.12a.4.4,0,0,0-.14.34v3.62c0,.23,0,.23-.23.23H.19c-.18,0-.19,0-.19.19v1.94c0,.24,0,.24.24.24,2.08,0,4.17,0,6.25,0,.43,0,.43,0,.43-.44,0-1.16,0-2.33,0-3.5,0,0,0-.12,0-.15s.09.05.12.08l1.4,1.4c.49.49,1,1,1.44,1.47.09.1.11.17,0,.27s-.14.15-.21.22c-1.42,1.47-2.87,2.9-4.32,4.34a.5.5,0,0,0-.16.4v6.5c0,.1,0,.14.14.14h2c.12,0,.18,0,.17-.17V26.75a.46.46,0,0,1,.15-.37l1.45-1.46,3-3s.06-.1.12-.08,0,.1,0,.15c0,.41,0,.81,0,1.22,0,1.42,0,2.83,0,4.24,0,.33,0,.3.3.3h6.15a.12.12,0,0,1,.14.11s0,0,0,0,0,.12,0,.17l0,1.18v2a.63.63,0,0,0,.15.45l2.14,2.8c0,.05.1.09.06.15s-.1.05-.15.05h1.66V0H19.07V6.89Z" transform="translate(0)"/></g></g></g></g></g></svg>