<svg xmlns="http://www.w3.org/2000/svg" viewBox="0 0 44 37.33"><defs><style>.cls-1,.cls-2{fill:#0a0a0a;}.cls-2{fill-rule:evenodd;}</style></defs><g id="Layer_2" data-name="Layer 2"><g id="Layer_1-2" data-name="Layer 1"><g id="Group_25" data-name="Group 25"><path id="Path_21" data-name="Path 21" class="cls-1" d="M36,1.36A22.66,22.66,0,0,1,38.64,33.3,21.72,21.72,0,0,1,36,36l-1.89-1.89A20,20,0,0,0,36.74,5.92a20.33,20.33,0,0,0-2.66-2.67Z"/><path id="Path_22" data-name="Path 22" class="cls-1" d="M32.18,5.15a17.33,17.33,0,0,1,0,27l-1.9-1.9a14.67,14.67,0,0,0,0-23.23Z"/><path id="Path_23" data-name="Path 23" class="cls-1" d="M28.38,9a12,12,0,0,1,2.67,16.76,12.52,12.52,0,0,1-2.67,2.67l-1.91-1.92a9.35,9.35,0,0,0,0-15.6L28.38,9Z"/><path id="Path_24" data-name="Path 24" class="cls-2" d="M21.33,0V37.33L8,24H0V13.33H8Z"/></g></g></g></svg>