
<?xml version="1.0" encoding="utf-8"?>
<!-- Generator: Adobe Illustrator 26.0.2, SVG Export Plug-In . SVG Version: 6.00 Build 0)  -->
<svg version="1.1" id="Laag_1" xmlns="http://www.w3.org/2000/svg" xmlns:xlink="http://www.w3.org/1999/xlink" x="0px" y="0px"
	 viewBox="0 0 179.1 247.3" style="enable-background:new 0 0 179.1 247.3;" xml:space="preserve">
<g id="Layer_2">
	<g id="Layer_1-2">
		<g id="Group_29">
			<path id="Path_32" d="M141.9,134.4v16.2c0,1.6-0.1,1.7-1.6,1.7s-1.6-0.1-1.6-1.6c0-6.7,0-13.4,0-20.1c0-1.5,0.1-1.6,1.6-1.6
				c0.6,0,1.2,0,1.9,0c1.2,0,1.3,0.1,1.7,1.2c1.4,4,2.8,7.9,4.2,11.9l1.9,5.3c0.4-0.3,0.7-0.8,0.8-1.3c1.8-4.9,3.5-9.8,5.3-14.7
				c1-2.8,0.6-2.4,3.4-2.4h0.5c1.1,0,1.3,0.2,1.3,1.3c0,2.4,0,4.9,0,7.3c0,4.3,0,8.7,0,13c0,0.5,0.2,1.2-0.4,1.4
				c-0.8,0.3-1.7,0.3-2.5,0c-0.3-0.1-0.3-0.4-0.3-0.7s0-0.8,0-1.2v-15.5c-0.4,0.4-0.6,0.9-0.8,1.4c-1.7,4.8-3.5,9.7-5.2,14.5
				c-0.2,1.2-1.4,2-2.6,1.7c0,0,0,0,0,0c-0.2,0-0.3-0.1-0.5-0.1c-0.6-0.2-0.7-0.7-0.9-1.2c-0.9-2.5-1.8-4.9-2.6-7.4l-3.3-9.2
				L141.9,134.4"/>
			<path id="Path_33" d="M175.6,174.2c-0.5,1.4-1,2.8-1.5,4.2c-1.5,4-2.9,8.1-4.4,12.1c-0.5,1.5-1.4,1.9-3,1.5
				c-0.6-0.1-0.7-0.6-0.9-1.1c-0.7-1.9-1.3-3.7-2-5.6l-3.7-10.4c-0.1-0.2-0.1-0.3-0.3-0.7c-0.2,0.4-0.2,0.8-0.1,1.2
				c0,4.9,0,9.7,0,14.6c0,1.9-0.1,2-1.9,1.9c-1.2,0-1.3-0.2-1.3-1.3s0-2.5,0-3.7V171c0-0.4,0-0.8,0-1.2c-0.1-0.4,0.3-0.9,0.7-0.9
				c0,0,0,0,0,0h0.2c1,0,2,0,2.9,0c0.7,0,1,0.5,1.2,1.1c0.7,2.1,1.5,4.1,2.2,6.1c1.2,3.5,2.5,7.1,3.8,10.6c0.1,0.2,0.1,0.5,0.4,0.7
				c0.4-0.1,0.3-0.5,0.4-0.8c2-5.4,3.9-10.7,5.8-16.1c0.1-0.3,0.2-0.6,0.3-0.9c0.1-0.4,0.5-0.8,1-0.7c0.9,0,1.9,0,2.8,0
				c0.5,0,0.9,0.3,0.9,0.8c0,0,0,0.1,0,0.1c0,0.4,0,0.7,0,1.1v19.3c0,2-0.2,2.1-2.1,2c-0.9-0.1-1.1-0.2-1.1-1.1c0-0.4,0-0.7,0-1.1
				v-15.7L175.6,174.2"/>
			<path id="Path_34" d="M21.7,214.2l1.3-3.4l4.9-13.6c0.5-1.5,0.5-1.5,2.1-1.5c0.6,0,1.1,0,1.7,0c1,0.1,1.1,0.2,1.2,1.2
				c0,0.3,0,0.5,0,0.8V217c0,1.9-0.2,2.1-2.1,2c-0.9-0.1-1-0.2-1.1-1.1c0-0.4,0-0.7,0-1.1v-15.7h-0.2l-2.6,7.2
				c-1.1,3.1-2.2,6.2-3.3,9.2c-0.2,0.5-0.2,1.1-0.8,1.3c-0.7,0.2-1.5,0.2-2.2,0c-0.5-0.1-0.6-0.6-0.8-1c-0.7-1.9-1.4-3.8-2-5.6
				c-1.2-3.4-2.4-6.8-3.7-10.2c-0.1-0.2-0.2-0.4-0.4-0.6c0,0.4-0.1,0.7-0.1,1.1v14.4c0,2-0.1,2.1-2.1,2c-1-0.1-1.2-0.2-1.2-1.2
				c0-2,0-4,0-6v-14c0-0.4,0-0.8,0-1.2c0-0.5,0.3-0.9,0.8-0.9h3.1c0.7,0,0.9,0.5,1.2,1.1c0.8,2.1,1.5,4.2,2.3,6.4
				c1.2,3.5,2.5,6.9,3.7,10.4c0.1,0.2,0.1,0.5,0.5,0.7"/>
			<path id="Path_35" d="M36.3,88.9c-0.4,1.2-0.8,2.3-1.3,3.4L30.5,105c-0.2,0.5-0.2,1.1-0.9,1.2c-0.8,0.2-1.6,0.2-2.4-0.1
				c-0.4-0.1-0.5-0.6-0.6-1c-0.7-2-1.4-3.9-2.1-5.9c-1.3-3.6-2.6-7.2-3.9-10.9c-0.4,0.3-0.2,0.6-0.2,0.9c0,5,0,9.9,0,14.9
				c0,0.4,0,0.7,0,1.1c-0.1,0.9-0.2,0.9-1.1,1c-2.1,0.2-2.2,0-2.2-2V84.6c0.1-1.2,0.2-1.3,1.4-1.3c0.8,0,1.5,0,2.2,0
				c0.7-0.1,1.3,0.4,1.4,1c0.6,1.8,1.3,3.7,2,5.5c1.3,3.7,2.6,7.4,3.9,11.1c0.1,0.3,0.1,0.6,0.5,0.8c0.4-0.3,0.4-0.8,0.6-1.1
				c1.9-5.3,3.9-10.7,5.8-16c0.4-1.2,0.5-1.2,1.8-1.2c0.8,0,1.5,0,2.2,0c0.4,0,0.7,0.2,0.8,0.6c0,0,0,0,0,0c0,0,0,0.1,0,0.1
				c0,0.3,0,0.7,0,1.1v19.4c0,0.2,0,0.4,0,0.7c-0.1,1-0.2,1.1-1.2,1.2h-0.1c-1.9,0.1-2,0-2-1.9V88.9L36.3,88.9"/>
			<path id="Path_36" d="M117.3,234.2c1.6,1,2.6,2.5,3,4.3c0.5,1.9,1.3,3.8,2.2,5.5c0.4,0.7,0.3,0.9-0.6,0.9c-2.8,0-2.8,0.5-4.2-2.6
				c-0.4-0.9-0.6-1.8-0.8-2.7c-0.1-0.7-0.3-1.4-0.6-2c-0.6-1.5-2.1-2.5-3.7-2.5c-1.6,0-3.2,0-4.8,0c-1,0-1.2,0.2-1.2,1.2
				c0,2.2,0,4.4,0,6.6c0,0.4,0,0.8,0,1.2c-0.1,0.8-0.3,0.8-1.8,0.8s-1.5-0.1-1.6-0.9c0-0.4,0-0.7,0-1.1v-19.7c0-1.6,0.1-1.6,1.7-1.6
				h9.2c1.2,0,2.4,0.2,3.5,0.6c3.2,1.2,4.9,4.7,3.7,7.9c-0.6,1.5-1.7,2.8-3.2,3.5C117.9,233.8,117.6,233.8,117.3,234.2 M111.5,224.8
				L111.5,224.8c-1.1,0-2.2,0-3.3,0s-1.3,0.2-1.3,1.3c0,1.6,0,3.2,0,4.8c0,1.2,0.2,1.3,1.3,1.3c2,0,4,0,6,0c0.5,0,1-0.1,1.4-0.2
				c2-0.6,2.9-1.8,2.7-4.1c-0.1-1.7-1.5-3-3.3-3C113.8,224.8,112.6,224.8,111.5,224.8"/>
			<path id="Path_37" d="M65.5,11.7V2c0-0.4,0-0.8,0-1.2c0-0.4,0.3-0.7,0.7-0.7c0,0,0,0,0,0h0.1c3.7,0.1,7.3-0.3,10.9,0.3
				c3.3,0.5,6,2.9,6.9,6.1c1.1,3.5,1,7.3-0.3,10.8c-1.2,3.4-4.3,5.7-7.9,5.8c-2.9,0.2-5.8,0.3-8.8,0.2c-1.5,0-1.6-0.2-1.6-1.6
				C65.5,18.3,65.5,15,65.5,11.7 M69,11.5v6.9c0,0.3,0,0.6,0,0.9c0,0.4,0.3,0.8,0.7,0.9c0.1,0,0.2,0,0.2,0c2,0.1,4.1,0,6.1-0.3
				c1.7-0.3,3.1-1.3,4-2.7c0.8-1.5,1.3-3.1,1.4-4.8c0.3-2.3-0.2-4.6-1.4-6.7c-0.9-1.5-2.4-2.5-4.2-2.7c-1.8-0.2-3.6-0.3-5.4-0.2
				C69.1,2.9,69,3,69,4.4C69,6.8,69,9.2,69,11.5"/>
			<path id="Path_38" d="M127.2,226.8v-9.6c0-0.4,0-0.8,0-1.2c0-0.4,0.3-0.7,0.7-0.7c0,0,0,0,0,0h0.1h0.4c2.9,0,5.8-0.1,8.6,0.1
				c3.4,0.2,6.2,1.5,7.9,4.5c0.7,1.3,1.2,2.8,1.3,4.3c0.3,2.4,0.1,4.8-0.4,7.1c-1,4.2-4.7,7.1-9,7c-2.7,0.1-5.5,0-8.2,0
				c-1.3,0-1.4-0.1-1.4-1.5C127.2,233.5,127.2,230.1,127.2,226.8L127.2,226.8z M130.7,226.7v3.4c0,1.4,0,2.8,0,4.2
				c0,0.6,0.1,1.1,0.8,1.1c2.2,0.1,4.3,0,6.5-0.3c1.5-0.3,2.8-1.2,3.6-2.5c0.9-1.5,1.4-3.2,1.4-4.9c0.3-2.3-0.2-4.5-1.2-6.6
				c-0.9-1.6-2.5-2.6-4.3-2.8c-1.8-0.2-3.6-0.3-5.4-0.2c-1.3,0-1.4,0.1-1.4,1.4C130.7,221.9,130.7,224.3,130.7,226.7"/>
			<path id="Path_39" d="M45.2,237c-1.7,0-3.4-0.4-5-1.1c-2.4-1-4-3.2-4.3-5.8c-0.2-1,0-1.2,1-1.4c0.4,0,0.7-0.1,1.1-0.1
				c0.6-0.1,1.1,0.3,1.2,0.9l0,0c0.9,3,2.6,4.3,5.7,4.4c1.5,0.2,2.9,0,4.3-0.7c1-0.5,1.8-1.4,1.9-2.6c0.3-1.5-0.5-2.9-2-3.3
				c-1.6-0.6-3.3-1.2-5-1.6c-1.5-0.4-2.9-0.8-4.3-1.4c-2.8-1.2-4-4.5-2.8-7.3c0.4-0.9,1-1.7,1.8-2.2c2.2-1.6,4.9-2.2,7.5-1.8
				c2.1,0.1,4,1,5.5,2.5c0.9,1,1.5,2.2,1.7,3.6c0.1,1,0,1.1-0.9,1.2c-0.2,0-0.4,0.1-0.7,0.1c-1.3,0.1-1.5,0.1-1.9-1.2
				c-0.3-1.4-1.4-2.6-2.8-3c-1.6-0.6-3.4-0.6-5,0c-0.7,0.2-1.3,0.6-1.7,1.2c-1,1.1-0.8,2.8,0.3,3.8c0.1,0.1,0.3,0.2,0.5,0.3
				c0.9,0.5,1.8,0.8,2.7,1c1.6,0.4,3.2,0.9,4.7,1.3c0.6,0.2,1.1,0.3,1.6,0.6c2.3,0.7,3.8,2.8,3.9,5.2c0.2,2.4-1,4.7-3.1,5.9
				C49.4,236.5,47.3,237.1,45.2,237"/>
			<path id="Path_40" d="M42.7,17c0-3.3,0-6.6,0-10c0-1.5,0.1-1.6,1.6-1.6h13.3c0.3,0,0.6,0,0.9,0c0.3,0,0.6,0.2,0.7,0.6
				c0.1,0.6,0.1,1.2,0,1.8c-0.1,0.3-0.3,0.5-0.7,0.5c-0.4,0-0.8,0-1.2,0H48c-0.3,0-0.7,0-1.1,0c-0.4,0-0.7,0.3-0.8,0.7
				c0,0,0,0.1,0,0.1c0,1.7,0,3.4,0,5.2c0,0.6,0.4,0.8,1,0.8h3.3c2.2,0,4.3,0,6.5,0c0.5,0,1-0.1,1.3,0.5c0.2,0.7,0.2,1.4-0.1,2.1
				c-0.2,0.3-0.5,0.3-0.8,0.3c-0.9,0-1.9,0-2.8,0h-7c-1.3,0-1.3,0.1-1.4,1.4c0,1.6,0,3.2,0,4.8c0,1.3,0.1,1.4,1.5,1.4
				c3.2,0,6.5,0,9.7,0h1.2c0.5-0.1,0.9,0.2,1,0.7c0,0,0,0,0,0c0,0.1,0,0.2,0,0.2c0,0.1,0,0.3,0,0.4c0,1.5-0.1,1.6-1.5,1.6
				c-3.5,0-6.9,0-10.4,0h-3.5c-1.3,0-1.5-0.1-1.5-1.5c0-3.4,0-6.8,0-10.2"/>
			<path id="Path_41" d="M79.9,235.7v-9.6c0-0.4,0-0.8,0-1.2c0-0.4,0.3-0.8,0.7-0.8c0,0,0,0,0,0c0,0,0,0,0.1,0c0.3,0,0.6,0,0.9,0
				h12.9c0.3,0,0.7,0,1.1,0c0.4,0,0.8,0.3,0.8,0.8v0.4c0.1,1.6-0.1,1.8-1.7,1.8h-9.8c-1.4,0-1.5,0.1-1.5,1.5c0,1.2,0,2.5,0,3.7
				c0,1.5,0,1.5,1.6,1.5c3,0,5.9,0,8.9,0c1.6,0,2,0.5,1.7,2.1c0,0.4-0.4,0.7-0.8,0.7h-1.1c-3,0-5.9,0-8.9,0c-1.4,0-1.4,0.1-1.4,1.4
				c0,1.6,0,3.2,0,4.8c0,1.2,0.1,1.4,1.4,1.4h10.1c1.8,0,1.9,0,1.8,2.1c0,0.4-0.3,0.8-0.7,0.9c0,0,0,0,0,0h-0.1h-0.8H81.6h-0.8
				c-0.4,0-0.8-0.3-0.8-0.8c0,0,0,0,0,0v-0.1c0-0.4,0-0.8,0-1.2L79.9,235.7"/>
			<path id="Path_42" d="M15.6,68.3c-2.5,0.2-5-0.6-7-2.1c-1.4-1.1-2.3-2.8-2.5-4.6c-0.2-1.1,0.1-1.3,1.2-1.4c0.4,0,0.7,0,1.1,0
				c0.6,0,0.9,0.3,1,0.8c0.9,3,2.7,4.4,5.8,4.5c1.2,0.1,2.5-0.1,3.6-0.5c0.9-0.3,1.7-1,2.2-1.9c0.7-1.4,0.2-3.2-1.2-4l0,0
				c-1.3-0.6-2.6-1.1-4-1.4c-1.8-0.4-3.6-0.9-5.3-1.6c-1.8-0.6-3.1-2.1-3.5-4c-0.4-2.5,0.7-5,2.9-6.2c1.4-0.8,2.9-1.3,4.5-1.3
				c2-0.2,4,0.2,5.8,1c1.9,0.9,3.2,2.7,3.5,4.7c0.2,1.2,0,1.5-1.2,1.6c-0.4,0-0.7,0-1.1,0c-0.5,0.1-0.9-0.3-1-0.7
				c-0.1-0.3-0.1-0.5-0.2-0.8c-0.2-0.5-0.5-1.1-0.8-1.5c-1.6-2.1-6.8-2-8.3-0.3S10.1,52,12,53c1,0.4,2,0.8,3,1
				c1.5,0.4,3.1,0.9,4.6,1.3c0.7,0.2,1.4,0.5,2,0.8c3.9,1.8,4,6.9,1.7,9.4c-1.6,1.7-3.7,2.7-6,2.8C16.8,68.2,16.2,68.2,15.6,68.3"/>
			<path id="Path_43" d="M77.9,127.3c-2.5,0.2-5-0.5-7-2.1c-1.4-1.2-2.3-2.8-2.5-4.7c-0.1-1,0.1-1.3,1.1-1.3c0.3,0,0.7,0,1.1,0
				c0.7,0,1,0.3,1.1,0.9c0.4,2.2,2.2,3.9,4.4,4.2c1.7,0.4,3.4,0.3,5-0.3c0.9-0.3,1.6-0.9,2.1-1.7c0.8-1.4,0.4-3.2-1-4.1L82,118
				c-1.2-0.6-2.5-1.1-3.9-1.4c-1.8-0.4-3.6-0.9-5.4-1.6c-1.8-0.6-3.2-2.2-3.6-4.1c-0.4-2.4,0.7-4.8,2.8-6c3.4-2.1,7.7-2.1,11.1,0
				c1.6,0.9,2.7,2.5,2.9,4.4c0.2,1.2,0,1.4-1.2,1.5c-0.3,0-0.6,0-0.9,0c-0.5,0.1-1.1-0.2-1.2-0.8c0,0,0,0,0,0c0,0,0-0.1,0-0.1
				c-0.5-2.2-2.5-3.8-4.8-3.6c-0.7,0-1.3,0-2,0.1c-1.1,0.1-2.1,0.6-2.8,1.4c-1,1-0.9,2.7,0.1,3.7c0.2,0.2,0.4,0.3,0.6,0.4
				c0.5,0.3,1,0.5,1.6,0.7c2.1,0.6,4.2,1.2,6.2,1.8c0.6,0.2,1.2,0.4,1.7,0.6c4.3,1.8,4.5,7.5,1.4,10.2c-1.5,1.3-3.4,2-5.3,2.2
				C79,127.2,78.4,127.2,77.9,127.3"/>
			<path id="Path_44" d="M153.4,55.4c0.5-0.3,1-0.7,1.4-1.2c2.7-2.7,5.4-5.2,8-8c1.5-1.7,3.3-1.5,5.2-1.5c0.4,0,0.5,0.3,0.2,0.7
				s-0.5,0.5-0.8,0.8l-7.2,6.9c-1.1,1.1-1.1,1.1-0.2,2.3c2.7,3.7,5.4,7.3,8.1,11c0.3,0.4,0.8,0.7,0.5,1.2s-0.8,0.2-1.2,0.2
				c-2.8,0-2.3,0.3-3.9-1.9l-6-8.4c-0.8-1-0.8-1-1.8-0.2c-2.5,2.3-2.5,2.3-2.5,5.7c0,1.2,0,2.4,0,3.6S153,67.9,152,68
				c-2.1,0.1-2.2,0-2.2-2V46.7c0-1.9,0.1-2,1.9-1.9c1.4,0,1.6,0.1,1.6,1.6c0,2.5,0,5,0,7.4C153.2,54.3,153.2,54.9,153.4,55.4"/>
			<path id="Path_45" d="M92.6,121.7c0-3.4,0-6.7,0-10.1c0-1.4,0.1-1.5,1.5-1.5c4.5,0,9,0,13.6,0c0.5,0,1.2-0.1,1.3,0.5
				c0.3,0.7,0.2,1.5-0.1,2.2c-0.3,0.4-0.8,0.3-1.2,0.3H96.8c-0.4-0.1-0.8,0.2-0.8,0.6c0,0,0,0,0,0c0,0.1,0,0.1,0,0.2v5.2
				c0,0.4,0.2,0.7,0.6,0.7c0,0,0,0,0,0h0.1h1.1h8.9c0.5,0,1.1-0.2,1.3,0.3c0.3,0.7,0.3,1.4,0.1,2.1c-0.1,0.3-0.4,0.4-0.6,0.4
				s-0.7,0-1.1,0h-9c-1.3,0-1.4,0.1-1.4,1.3c0,1.6,0,3.3,0,4.9c0,1.2,0.1,1.3,1.4,1.3h10.4c1.6,0,2.2,0.8,1.7,2.4
				c-0.1,0.3-0.3,0.6-0.6,0.6c-0.3,0-0.7,0-1.1,0H94.3c-0.3,0-0.7,0-1.1,0c-0.4,0-0.7-0.3-0.7-0.7c0-0.4-0.1-0.8-0.1-1.2L92.6,121.7
				"/>
			<path id="Path_46" d="M91.8,11.6c0-3.3,0-6.7,0-10c0-1.5,0.1-1.6,1.5-1.6h13.6c0.5,0,1.1-0.2,1.3,0.4c0.3,0.7,0.3,1.4,0,2.1
				c-0.2,0.5-0.7,0.4-1.1,0.4c-1.5,0-2.9,0-4.4,0c-2.1,0-4.2,0-6.2,0c-1.2,0-1.3,0.1-1.3,1.2c0,1.4,0,2.8,0,4.2
				c0,1.2,0.1,1.3,1.3,1.3c2.8,0,5.6,0,8.4,0h0.8c1.6,0,2.2,0.8,1.7,2.4c-0.1,0.3-0.3,0.6-0.6,0.6c-0.4,0-0.8,0-1.2,0h-8.8
				c-1.6,0-1.6,0-1.6,1.5v4.5c0,1.5,0,1.5,1.5,1.5h10.5c1.4,0,1.5,0.2,1.5,1.5s-0.2,1.5-1.5,1.5c-4.7,0-9.3,0-13.9,0
				c-1.3,0-1.4-0.1-1.4-1.5c0-3.4,0-6.7,0-10.1"/>
			<path id="Path_47" d="M129.9,126.7c0-2.3,0-4.5,0-6.8c0-1.4,0.1-1.5,1.5-1.5c1.9,0,2,0,2,1.9v12.2c0,1.2-0.1,2.3-0.4,3.4
				c-0.6,3-2.9,5.3-5.9,5.8c-2.1,0.5-4.3,0.4-6.5-0.1c-2.7-0.6-4.8-2.7-5.3-5.4c-0.3-1.2-0.5-2.4-0.5-3.7c0-4.1,0-8.2,0-12.4
				c0-0.3,0-0.6,0-0.9c0-0.5,0.3-0.9,0.8-0.9c0,0,0,0,0,0h0.1c2.7-0.1,2.5,0,2.5,2.1c0,4.2,0,8.4,0,12.6c0,1.1,0.2,2.2,0.7,3.2
				c0.6,1.2,1.7,2.1,3,2.4c1.3,0.3,2.7,0.3,4.1,0c1.7-0.3,3-1.5,3.5-3.1c0.3-0.8,0.4-1.7,0.4-2.6L129.9,126.7L129.9,126.7"/>
			<path id="Path_48" d="M19.5,192.1c-0.2,0-0.4,0-0.7,0c-0.7,0.1-1.3-0.3-1.5-1c-0.5-1.5-1.1-3-1.7-4.5s-0.5-1.4-2-1.4H7.2
				c-1.4,0-1.4,0-1.9,1.4s-1,2.8-1.5,4.2c-0.5,1.2-0.5,1.3-1.8,1.3c-2.2,0-2.2,0-1.4-2.1c2.5-6.6,5-13.1,7.6-19.7
				c0.6-1.5,0.6-1.4,2.1-1.5h0.1c1.9,0,1.9,0,2.6,1.8c2.6,6.5,5.2,13.1,7.8,19.6C21.5,192.1,21.5,192.1,19.5,192.1 M10.4,172.5
				c-1.2,3.2-2.2,6.1-3.3,8.9c-0.3,0.8-0.2,0.9,0.7,0.9c1.7,0,3.3,0,5,0c1,0,1.1-0.2,0.7-1.1c-0.6-1.8-1.3-3.5-2-5.2
				C11.2,174.9,10.8,173.9,10.4,172.5"/>
			<path id="Path_49" d="M157,195.9h0.4c0.8-0.2,1.6,0.4,1.8,1.2c0.9,2.4,1.9,4.9,2.9,7.3c1.7,4.3,3.4,8.6,5.1,12.8l0.2,0.4
				c0.5,1.3,0.4,1.4-1,1.4c-2.6,0-2.1,0.2-3-2.1c-0.5-1.2-1-2.5-1.4-3.7c-0.2-0.7-0.8-1.2-1.6-1.1c-2.3,0-4.7,0-7,0
				c-1.1,0-1.1,0-1.5,1.1c-0.6,1.5-1.1,3.1-1.7,4.6c-0.4,1.2-0.5,1.2-1.7,1.2h-0.7c-1.5,0-1.6-0.1-1-1.5c2.2-5.7,4.4-11.5,6.6-17.2
				c0.4-1,0.8-2,1.1-3c0.5-1.3,0.5-1.3,1.9-1.3L157,195.9 M156.8,199.4l-1.9,5.4c-0.4,1.2-0.9,2.3-1.3,3.5c-0.2,0.7-0.1,0.9,0.6,0.9
				c1.7,0,3.4,0,5.2,0c0.8,0,0.9-0.2,0.6-1C159.1,205.3,158,202.5,156.8,199.4"/>
			<path id="Path_50" d="M64,104.7c0,2.1,0,4.2,0,6.2c0,0.9-0.1,1.9-0.3,2.8c-0.6,3.2-3.1,5.6-6.3,6c-1.7,0.3-3.5,0.3-5.2,0
				c-4.1-0.7-6.2-3.1-6.7-7.9c-0.1-1.1,0-2.3,0-3.4c0-3.5,0-7.1,0-10.6c0-1.3,0.2-1.4,1.5-1.4h0.3c1.5,0,1.6,0.1,1.6,1.6
				c0,3.9,0,7.9,0,11.8c0,0.8,0.1,1.6,0.2,2.4c0.5,3.9,2.7,4.8,5.8,4.9c0.8,0,1.6-0.1,2.4-0.4c1.7-0.5,2.9-1.9,3.2-3.6
				c0.2-1,0.3-2.1,0.3-3.2c0-3.8,0-7.7,0-11.5c0-0.4,0-0.8,0-1.2c0.1-0.8,0.3-0.8,1.7-0.8s1.5,0.1,1.6,0.8c0,0.4,0,0.7,0,1.1
				L64,104.7"/>
			<path id="Path_51" d="M27.5,36.5c0-2.8,0-5.7,0-8.5c0-1.4-0.1-1.5-1.5-1.5s-3,0-4.5,0c-1.3,0-1.5-0.1-1.5-1.5s0.1-1.6,1.6-1.6
				h15.3h0.8c0.4,0,0.8,0.3,0.8,0.8c0,0,0,0,0,0c0,0,0,0,0,0.1c0,0.3,0,0.5,0,0.8c0,1.2-0.2,1.3-1.3,1.3c-1.5,0-2.9,0-4.4,0
				c-1.8,0-1.8,0-1.8,1.9v16.2c0,2.1-0.1,2.2-2.1,2.1c-1.2,0-1.3-0.2-1.3-1.4C27.5,42.4,27.5,39.4,27.5,36.5L27.5,36.5z"/>
			<path id="Path_52" d="M67.9,234v8.2c0,0.4,0,0.7,0,1.1c-0.1,0.9-0.2,0.9-1.7,0.9s-1.6-0.1-1.7-0.9c0-0.4,0-0.9,0-1.3v-16.2
				c0-1.8,0-1.8-1.7-1.8c-1.5,0-3,0-4.5,0c-1.1,0-1.2-0.1-1.2-1.2c0-0.3,0-0.5,0-0.8c0-0.4,0.3-0.8,0.7-0.8h16.2c0.3,0,0.6,0,0.9,0
				c0.3,0,0.6,0.3,0.6,0.6c0,0.4,0,0.8,0,1.2c0,0.8-0.2,1-1.1,1c-1.7,0-3.4,0-5,0c-1.3,0-1.4,0.1-1.4,1.4
				C67.9,228.2,67.9,231.1,67.9,234"/>
			<path id="Path_53" d="M150,28.3c0-2.5,0-5,0-7.6c0-1.4,0.1-1.5,1.5-1.5h0.3c1.5,0,1.7,0.2,1.7,1.7c0,4.8,0,9.6,0,14.5
				c0,1.2-0.2,2.4-0.6,3.5c-0.7,2.2-2.7,3.7-5,3.8c-0.8,0.1-1.7,0.1-2.5,0c-2.4-0.1-4.4-1.8-4.9-4.1c-0.2-0.6-0.3-1.2-0.3-1.8
				c0-0.5-0.3-1.2,0.3-1.6c0.8-0.4,1.7-0.5,2.6-0.2c0.4,0.1,0.4,0.5,0.5,0.9c0,0.6,0.1,1.2,0.3,1.8c0.3,1.3,1.5,2.2,2.8,2.2
				c1.4,0.1,2.7-0.7,3.1-2c0.3-0.7,0.4-1.5,0.3-2.2L150,28.3L150,28.3z"/>
			<path id="Path_54" d="M115.4,15.2c0-3.4,0-6.7,0-10.1c0-1.4,0.1-1.5,1.5-1.5h0.4c1.2,0,1.4,0.2,1.4,1.4c0,0.6,0,1.2,0,1.9v15
				c0,0.4,0,0.8,0,1.2c0,0.4,0.3,0.7,0.7,0.8c0,0,0,0,0,0h0.1c0.3,0,0.7,0,1.1,0h8.2c0.5,0,1.2-0.2,1.5,0.4c0.3,0.7,0.3,1.5,0,2.2
				c-0.1,0.2-0.3,0.4-0.5,0.4c-0.3,0-0.6,0.1-0.9,0.1h-12h-0.7c-0.4,0-0.8-0.3-0.8-0.7v-0.1c0-0.4,0-0.7,0-1.1L115.4,15.2"/>
			<path id="Path_55" d="M137.6,31c0,3.3,0,6.6,0,9.9c0,1.5-0.1,1.5-1.6,1.6h-0.8c-0.4,0.1-0.9-0.3-0.9-0.7c0,0,0,0,0,0
				c0-0.1,0-0.1,0-0.2c0-0.3,0-0.6,0-0.9V21.1c0-1.9,0.1-2,1.9-1.9c1.2,0,1.4,0.1,1.4,1.4C137.7,24.1,137.7,27.5,137.6,31"/>
		</g>
	</g>
</g>
</svg>
