<svg xmlns="http://www.w3.org/2000/svg" viewBox="0 0 179.05 247.34"><defs><style>.cls-1{fill:#fff;}</style></defs><g id="Layer_2" data-name="Layer 2"><g id="Layer_1-2" data-name="Layer 1"><g id="Group_29" data-name="Group 29"><path id="Path_32" data-name="Path 32" class="cls-1" d="M141.9,134.36v16.2c0,1.58-.09,1.66-1.64,1.66s-1.62-.11-1.62-1.56q0-10,0-20.06c0-1.48.13-1.59,1.58-1.61q.93,0,1.86,0c1.2,0,1.29.08,1.71,1.25q2.13,5.94,4.24,11.88l1.91,5.33a2,2,0,0,0,.77-1.29c1.79-4.91,3.54-9.83,5.33-14.74,1-2.79.63-2.39,3.42-2.43H160c1.15,0,1.3.17,1.3,1.33,0,2.44,0,4.87,0,7.31q0,6.51,0,13c0,.5.2,1.19-.42,1.41a3.56,3.56,0,0,1-2.47,0c-.26-.1-.32-.41-.34-.68s0-.8,0-1.19V134.66a3.44,3.44,0,0,0-.75,1.44q-2.61,7.25-5.22,14.5a2.18,2.18,0,0,1-2.56,1.73,2.21,2.21,0,0,1-.5-.15c-.62-.18-.74-.71-.91-1.2q-1.33-3.69-2.65-7.38l-3.3-9.25-.24,0"/><path id="Path_33" data-name="Path 33" class="cls-1" d="M175.6,174.24c-.51,1.4-1,2.79-1.52,4.19-1.46,4-2.9,8.08-4.37,12.12-.54,1.5-1.41,1.89-3,1.49-.58-.15-.73-.6-.9-1.06q-1-2.8-2-5.62L160.09,175c-.06-.17-.13-.33-.28-.68a2.49,2.49,0,0,0-.15,1.24q0,7.3,0,14.61c0,1.88-.12,2-1.93,1.92-1.16,0-1.31-.17-1.34-1.3s0-2.48,0-3.72V171c0-.4,0-.8,0-1.2a.82.82,0,0,1,.73-.91h.17c1,0,2,0,2.92,0,.72,0,1,.49,1.18,1.06.72,2.05,1.47,4.08,2.2,6.13,1.25,3.54,2.51,7.09,3.75,10.64.09.24.09.54.39.66.35-.14.34-.49.44-.77q2.93-8.06,5.82-16.11c.1-.29.22-.58.33-.87a1,1,0,0,1,1-.74c.93,0,1.86,0,2.79,0a.85.85,0,0,1,.92.75.75.75,0,0,1,0,.15c0,.36,0,.71,0,1.06v19.27c0,2-.18,2.12-2.13,2-.93-.07-1.08-.2-1.14-1.1,0-.35,0-.71,0-1.06V174.27l-.17,0"/><path id="Path_34" data-name="Path 34" class="cls-1" d="M21.67,214.23l1.27-3.45,4.92-13.61c.52-1.47.53-1.47,2.08-1.48.58,0,1.15,0,1.73,0,1,.05,1.11.21,1.18,1.2,0,.26,0,.53,0,.8V217c0,1.95-.18,2.11-2.15,2-.92-.07-1.05-.2-1.11-1.13,0-.35,0-.71,0-1.06V201.12l-.18,0-2.61,7.2c-1.11,3.08-2.22,6.17-3.34,9.24-.18.49-.24,1.11-.83,1.28a4.36,4.36,0,0,1-2.24,0c-.49-.11-.6-.61-.75-1-.68-1.87-1.36-3.75-2-5.62q-1.83-5.13-3.67-10.25a1.19,1.19,0,0,0-.4-.6c0,.36-.07.73-.07,1.09V216.9c0,2-.15,2.15-2.09,2-1-.06-1.16-.2-1.17-1.2,0-2,0-4,0-6v-14c0-.4,0-.8,0-1.2a.83.83,0,0,1,.76-.89h3.09c.72,0,.95.52,1.16,1.09.75,2.13,1.53,4.25,2.29,6.37q1.84,5.21,3.67,10.4c.08.23.08.54.52.66"/><path id="Path_35" data-name="Path 35" class="cls-1" d="M36.32,88.9c-.42,1.15-.85,2.3-1.26,3.45L30.5,105c-.17.48-.23,1.14-.85,1.25a4.76,4.76,0,0,1-2.37-.06c-.4-.13-.5-.6-.63-1q-1.06-2.93-2.11-5.87-2-5.43-3.89-10.89c-.39.27-.21.62-.21.92q0,7.43,0,14.87c0,.36,0,.71,0,1.06-.07.86-.16.94-1.06,1-2.07.15-2.2,0-2.2-2V84.58c.06-1.22.17-1.33,1.43-1.35.75,0,1.5,0,2.25,0a1.26,1.26,0,0,1,1.39,1c.65,1.84,1.33,3.66,2,5.5q2,5.56,3.93,11.14c.1.28.12.62.47.79.4-.28.42-.75.57-1.14q2.89-8,5.78-16c.44-1.22.47-1.24,1.83-1.25.75,0,1.5,0,2.25,0a.69.69,0,0,1,.76.63.21.21,0,0,1,0,.11c0,.35,0,.7,0,1.06v19.39c0,.22,0,.44,0,.66-.06,1-.15,1.12-1.17,1.17h-.14c-1.86.06-2,0-2-1.88V88.93l-.23,0"/><path id="Path_36" data-name="Path 36" class="cls-1" d="M117.27,234.17a6.62,6.62,0,0,1,3,4.32,24.93,24.93,0,0,0,2.25,5.51c.43.71.3.95-.55.95-2.84,0-2.81.49-4.16-2.58a12.59,12.59,0,0,1-.76-2.68,8.78,8.78,0,0,0-.63-2,4.07,4.07,0,0,0-3.74-2.54c-1.59,0-3.19,0-4.78,0-1,0-1.15.18-1.16,1.19,0,2.21,0,4.43,0,6.64a6.8,6.8,0,0,1,0,1.19c-.12.76-.33.84-1.78.84s-1.5-.1-1.62-.88a7.51,7.51,0,0,1,0-1.06V223.38c0-1.55.1-1.64,1.67-1.65h9.16a10.79,10.79,0,0,1,3.52.59,6.16,6.16,0,0,1,.51,11.37c-.27.13-.61.14-.85.48m-5.88-9.41v0c-1.1,0-2.21,0-3.32,0s-1.31.18-1.33,1.3q0,2.38,0,4.77c0,1.16.15,1.29,1.31,1.3,2,0,4,0,6,0a5.39,5.39,0,0,0,1.43-.22c2-.56,2.86-1.8,2.65-4.08a3.19,3.19,0,0,0-3.27-3c-1.14-.07-2.3,0-3.44,0"/><path id="Path_37" data-name="Path 37" class="cls-1" d="M65.53,11.71V2a11.72,11.72,0,0,1,0-1.19.72.72,0,0,1,.69-.75h.08C70,.16,73.61-.29,77.21.36a8.27,8.27,0,0,1,6.87,6.08,16.52,16.52,0,0,1-.3,10.82,8.68,8.68,0,0,1-7.87,5.81,85.13,85.13,0,0,1-8.75.2c-1.46,0-1.62-.16-1.62-1.6,0-3.32,0-6.64,0-10M69,11.55v6.9c0,.31,0,.62,0,.93a.8.8,0,0,0,.69.88.6.6,0,0,0,.23,0A32.65,32.65,0,0,0,76,20,5.71,5.71,0,0,0,80,17.3a10.61,10.61,0,0,0,1.37-4.8A11.07,11.07,0,0,0,80,5.83a5.38,5.38,0,0,0-4.19-2.7,41,41,0,0,0-5.43-.21C69.09,2.94,69,3,69,4.38c0,2.39,0,4.78,0,7.17"/><path id="Path_38" data-name="Path 38" class="cls-1" d="M127.2,226.8v-9.56a9.4,9.4,0,0,1,0-1.19.73.73,0,0,1,.75-.72h.05l.4,0c2.88,0,5.76-.09,8.63.05,3.36.16,6.18,1.47,7.92,4.54a10.63,10.63,0,0,1,1.32,4.29,19.86,19.86,0,0,1-.45,7.12,9,9,0,0,1-9,7c-2.74.05-5.49,0-8.23,0-1.3,0-1.43-.12-1.44-1.47,0-3.36,0-6.73,0-10.09Zm3.47-.1v3.45c0,1.42,0,2.83,0,4.25,0,.57.08,1.1.82,1.1a28.22,28.22,0,0,0,6.49-.31,5.58,5.58,0,0,0,3.58-2.54,10.54,10.54,0,0,0,1.42-4.93,11.12,11.12,0,0,0-1.23-6.55,5.4,5.4,0,0,0-4.27-2.79,41.17,41.17,0,0,0-5.44-.21c-1.27,0-1.36.09-1.37,1.36,0,2.39,0,4.78,0,7.17"/><path id="Path_39" data-name="Path 39" class="cls-1" d="M45.18,237a12.65,12.65,0,0,1-5-1.1,7.24,7.24,0,0,1-4.31-5.81c-.15-1,0-1.2,1-1.35a9.43,9.43,0,0,1,1.06-.07,1.06,1.06,0,0,1,1.22.87v0c.88,3,2.56,4.26,5.68,4.41a7.74,7.74,0,0,0,4.27-.67,3.16,3.16,0,0,0,1.87-2.56A2.88,2.88,0,0,0,49,227.38,33.71,33.71,0,0,0,44,225.83a26.73,26.73,0,0,1-4.26-1.45,5.5,5.5,0,0,1-.94-9.51,10,10,0,0,1,7.54-1.8,8.28,8.28,0,0,1,5.45,2.46,6.52,6.52,0,0,1,1.65,3.56c.12,1,0,1.07-.89,1.22-.21,0-.43.07-.65.09-1.35.14-1.52.06-1.87-1.24a4.13,4.13,0,0,0-2.75-3,7.26,7.26,0,0,0-4.95,0,3.85,3.85,0,0,0-1.72,1.2,2.69,2.69,0,0,0,.26,3.78,3,3,0,0,0,.47.32,11.09,11.09,0,0,0,2.73,1c1.57.45,3.15.87,4.73,1.33a16.52,16.52,0,0,1,1.63.56,5.72,5.72,0,0,1,3.94,5.17,6.13,6.13,0,0,1-3.12,5.9A11,11,0,0,1,45.18,237"/><path id="Path_40" data-name="Path 40" class="cls-1" d="M42.67,17c0-3.32,0-6.64,0-10,0-1.46.13-1.58,1.6-1.59H57.56c.31,0,.62,0,.92,0a.68.68,0,0,1,.67.55,5.23,5.23,0,0,1,0,1.85.67.67,0,0,1-.67.54c-.4,0-.8,0-1.2,0H48c-.35,0-.71,0-1.06,0a.71.71,0,0,0-.75.66.34.34,0,0,0,0,.1c0,1.72,0,3.45,0,5.18,0,.64.43.8,1,.8h3.33c2.17,0,4.34,0,6.51,0,.46,0,1-.14,1.26.46a2.68,2.68,0,0,1-.08,2.06c-.16.33-.52.3-.83.3-.93,0-1.86,0-2.79,0h-7c-1.27,0-1.35.09-1.36,1.37,0,1.59,0,3.19,0,4.78,0,1.31.11,1.41,1.47,1.41,3.23,0,6.47,0,9.7,0l1.2,0a.87.87,0,0,1,1,.75,1,1,0,0,1,0,.24c0,.13,0,.27,0,.4,0,1.47-.09,1.61-1.55,1.61-3.46,0-6.91,0-10.37,0H44.14c-1.31,0-1.45-.13-1.45-1.46,0-3.41,0-6.82,0-10.22"/><path id="Path_41" data-name="Path 41" class="cls-1" d="M79.88,235.74v-9.57a11.73,11.73,0,0,1,0-1.19.79.79,0,0,1,.77-.83.08.08,0,0,1,.07,0q.46,0,.93,0H94.58c.35,0,.7,0,1.06,0a.76.76,0,0,1,.76.76l0,.4c.09,1.65-.08,1.84-1.74,1.84H84.86c-1.42,0-1.49.07-1.5,1.5q0,1.86,0,3.72c0,1.49,0,1.53,1.61,1.53,3,0,5.93,0,8.9,0,1.62,0,2,.54,1.7,2.1a.78.78,0,0,1-.8.73l-1.06,0c-3,0-5.94,0-8.9,0-1.36,0-1.43.07-1.44,1.42,0,1.59,0,3.19,0,4.78,0,1.23.13,1.35,1.4,1.36h10.1c1.77,0,1.92,0,1.83,2.12a.79.79,0,0,1-.72.86H95.9l-.8,0H81.55l-.8,0a.8.8,0,0,1-.84-.76v-.08q0-.6,0-1.2v-9.56"/><path id="Path_42" data-name="Path 42" class="cls-1" d="M15.64,68.26a9.86,9.86,0,0,1-7-2.14,7,7,0,0,1-2.47-4.56c-.15-1.1.09-1.35,1.17-1.42.36,0,.71,0,1.06,0,.6,0,.85.29,1,.83.89,3,2.68,4.35,5.78,4.49a8.87,8.87,0,0,0,3.65-.51A3.76,3.76,0,0,0,21,63.05a3,3,0,0,0-1.19-4h0a17.28,17.28,0,0,0-4-1.43A36.82,36.82,0,0,1,10.51,56a5.47,5.47,0,0,1-3.53-4,5.94,5.94,0,0,1,2.92-6.2,9.34,9.34,0,0,1,4.54-1.31,11.5,11.5,0,0,1,5.81,1,6.52,6.52,0,0,1,3.53,4.72c.24,1.23,0,1.52-1.23,1.57-.35,0-.71,0-1.06,0a.86.86,0,0,1-.95-.74,7.42,7.42,0,0,0-.22-.77,5.13,5.13,0,0,0-.83-1.5c-1.62-2.13-6.8-2-8.29-.29S10.05,52,12,53a15.4,15.4,0,0,0,3,1c1.53.44,3.07.87,4.6,1.29a12.46,12.46,0,0,1,2,.79c3.86,1.84,4,6.89,1.69,9.39a8.9,8.9,0,0,1-6,2.77c-.52,0-1.06,0-1.59,0"/><path id="Path_43" data-name="Path 43" class="cls-1" d="M77.9,127.26a10,10,0,0,1-7-2.1,6.92,6.92,0,0,1-2.52-4.67c-.13-1,.09-1.28,1.11-1.35.35,0,.71,0,1.06,0,.65,0,1,.28,1.08.9a5.15,5.15,0,0,0,4.4,4.22,8.86,8.86,0,0,0,5-.29,3.74,3.74,0,0,0,2.1-1.73,3,3,0,0,0-1-4.1L82,118a16.46,16.46,0,0,0-3.86-1.38A38.07,38.07,0,0,1,72.78,115a5.46,5.46,0,0,1-3.6-4.1,5.76,5.76,0,0,1,2.77-6,10.81,10.81,0,0,1,11.14,0A6,6,0,0,1,86,109.26c.21,1.16,0,1.45-1.18,1.51-.31,0-.62,0-.93,0a1,1,0,0,1-1.18-.83.49.49,0,0,1,0-.12,4.56,4.56,0,0,0-4.76-3.62,18.91,18.91,0,0,0-2,.07,4.07,4.07,0,0,0-2.75,1.45,2.61,2.61,0,0,0,.09,3.68,3.43,3.43,0,0,0,.58.42,7.12,7.12,0,0,0,1.59.66c2.08.62,4.17,1.2,6.25,1.82a15.79,15.79,0,0,1,1.74.64c4.32,1.85,4.52,7.51,1.38,10.15a9.35,9.35,0,0,1-5.33,2.15c-.53,0-1.06,0-1.59,0"/><path id="Path_44" data-name="Path 44" class="cls-1" d="M153.43,55.4a5,5,0,0,0,1.38-1.16c2.67-2.65,5.44-5.2,8-8,1.54-1.71,3.33-1.54,5.22-1.46.44,0,.5.33.23.65s-.49.51-.75.76l-7.17,6.9c-1.15,1.1-1.14,1.11-.23,2.35q4.05,5.51,8.08,11c.27.37.82.73.53,1.25s-.81.25-1.24.25c-2.78,0-2.32.28-3.9-1.94l-6-8.43c-.76-1.05-.8-1.05-1.79-.15-2.48,2.27-2.48,2.27-2.48,5.67,0,1.2,0,2.39,0,3.59S153,67.92,152,68c-2.12.1-2.22,0-2.22-2V46.68c0-1.9.08-2,1.92-1.94,1.44,0,1.55.12,1.56,1.63,0,2.48,0,5,0,7.44a3.38,3.38,0,0,0,.17,1.58"/><path id="Path_45" data-name="Path 45" class="cls-1" d="M92.58,121.73c0-3.36,0-6.73,0-10.09,0-1.39.12-1.51,1.53-1.52q6.77,0,13.55,0c.51,0,1.16-.14,1.35.54a2.7,2.7,0,0,1-.14,2.19c-.27.43-.8.3-1.23.3H96.75a.72.72,0,0,0-.82.62.61.61,0,0,0,0,.19v5.18a.67.67,0,0,0,.6.74h.14l1.07,0h8.9c.47,0,1.08-.16,1.33.35a3,3,0,0,1,.06,2.07c-.07.3-.36.38-.63.39s-.71,0-1.06,0h-9c-1.33,0-1.39.06-1.4,1.31,0,1.64,0,3.27,0,4.91,0,1.25.1,1.33,1.4,1.34h10.36c1.61,0,2.17.82,1.67,2.39a.72.72,0,0,1-.64.58c-.35,0-.71,0-1.06,0H94.35c-.35,0-.7,0-1.06,0a.69.69,0,0,1-.67-.69c0-.4-.05-.8-.05-1.19v-9.69"/><path id="Path_46" data-name="Path 46" class="cls-1" d="M91.78,11.65c0-3.33,0-6.65,0-10,0-1.55.07-1.62,1.53-1.62h13.56c.46,0,1.06-.17,1.29.41a2.61,2.61,0,0,1,0,2.07c-.19.45-.67.36-1.06.36-1.46,0-2.92,0-4.38,0-2.09,0-4.17,0-6.25,0-1.24,0-1.31.08-1.33,1.25,0,1.41,0,2.83,0,4.25,0,1.16.11,1.26,1.33,1.26,2.79,0,5.58,0,8.38,0h.8c1.63,0,2.15.76,1.68,2.38a.7.7,0,0,1-.63.58,9.55,9.55,0,0,1-1.19,0H96.71c-1.57,0-1.58,0-1.59,1.53v4.52c0,1.48,0,1.5,1.47,1.51h10.5c1.37,0,1.53.19,1.52,1.52s-.19,1.47-1.48,1.47q-7,0-13.95,0c-1.27,0-1.39-.15-1.4-1.51,0-3.37,0-6.74,0-10.1"/><path id="Path_47" data-name="Path 47" class="cls-1" d="M129.86,126.67c0-2.26,0-4.52,0-6.77,0-1.4.14-1.52,1.52-1.54,1.86,0,2,0,2,1.9v12.22a14.11,14.11,0,0,1-.42,3.42,7.19,7.19,0,0,1-5.91,5.75,14.24,14.24,0,0,1-6.46-.1,7,7,0,0,1-5.35-5.35,14.68,14.68,0,0,1-.49-3.67q0-6.18,0-12.36c0-.31,0-.62,0-.92a.85.85,0,0,1,.82-.89h.13c2.68-.09,2.5,0,2.5,2.14q0,6.31,0,12.62a7.47,7.47,0,0,0,.7,3.22,4.29,4.29,0,0,0,3,2.41,8.37,8.37,0,0,0,4.07,0,4.52,4.52,0,0,0,3.47-3.14,8.33,8.33,0,0,0,.4-2.62v-6.37h0"/><path id="Path_48" data-name="Path 48" class="cls-1" d="M19.48,192.08c-.22,0-.44,0-.66,0a1.32,1.32,0,0,1-1.49-1c-.54-1.5-1.12-3-1.68-4.48s-.54-1.4-2-1.41H7.16c-1.36,0-1.41,0-1.9,1.36s-1,2.83-1.54,4.25c-.45,1.24-.51,1.27-1.8,1.3-2.2,0-2.24,0-1.44-2.08q3.78-9.85,7.58-19.7c.56-1.46.58-1.45,2.12-1.46h.13c1.9,0,1.9,0,2.61,1.76q3.93,9.79,7.84,19.6c.75,1.87.74,1.88-1.27,1.87m-9.07-19.59c-1.18,3.2-2.24,6.06-3.26,8.93-.29.79-.18.93.7.94q2.52,0,5,0c1,0,1.08-.18.73-1.14-.63-1.75-1.31-3.48-2-5.22-.4-1.07-.77-2.14-1.26-3.51"/><path id="Path_49" data-name="Path 49" class="cls-1" d="M157,195.91h.4a1.53,1.53,0,0,1,1.79,1.17c.92,2.45,1.92,4.86,2.89,7.28q2.57,6.42,5.12,12.83l.16.36c.5,1.31.44,1.42-1,1.41-2.57,0-2.12.19-3-2.06-.48-1.24-1-2.48-1.39-3.74a1.41,1.41,0,0,0-1.55-1.11c-2.34,0-4.69,0-7,0-1.09,0-1.14,0-1.53,1.09-.57,1.53-1.12,3.08-1.7,4.61-.45,1.18-.47,1.17-1.74,1.2h-.66c-1.46,0-1.55-.12-1-1.54q3.3-8.61,6.64-17.22c.38-1,.75-2,1.14-3,.52-1.3.54-1.3,1.94-1.32H157m-.17,3.55-1.92,5.38c-.42,1.16-.87,2.31-1.26,3.49-.25.74-.14.91.6.92,1.72,0,3.45,0,5.17,0,.83,0,.94-.19.65-1-1-2.87-2.1-5.71-3.24-8.79"/><path id="Path_50" data-name="Path 50" class="cls-1" d="M64,104.72c0,2.08,0,4.16,0,6.24a12.24,12.24,0,0,1-.32,2.76,7.31,7.31,0,0,1-6.32,6,14.66,14.66,0,0,1-5.16,0c-4.13-.74-6.25-3.14-6.66-7.87-.1-1.14,0-2.3,0-3.45,0-3.54,0-7.08,0-10.62,0-1.3.15-1.42,1.46-1.45h.27c1.48,0,1.6.11,1.6,1.57q0,5.91,0,11.82a17.06,17.06,0,0,0,.17,2.37c.52,3.88,2.71,4.79,5.78,4.92a6.77,6.77,0,0,0,2.36-.36,4.48,4.48,0,0,0,3.19-3.57,14.64,14.64,0,0,0,.32-3.17c0-3.85,0-7.7,0-11.54a8,8,0,0,1,0-1.2c.1-.75.31-.84,1.65-.84s1.53.1,1.63.85a9.56,9.56,0,0,1,0,1.07v6.5"/><path id="Path_51" data-name="Path 51" class="cls-1" d="M27.5,36.51c0-2.83,0-5.67,0-8.5,0-1.41-.08-1.47-1.53-1.48s-3,0-4.51,0c-1.34,0-1.45-.14-1.46-1.45s.11-1.58,1.59-1.58H36.87l.8,0a.8.8,0,0,1,.81.79.17.17,0,0,1,0,.07c0,.27,0,.53,0,.8,0,1.16-.16,1.32-1.3,1.34-1.46,0-2.92,0-4.38,0-1.82,0-1.82,0-1.82,1.87V44.6c0,2.14-.07,2.2-2.13,2.12-1.19,0-1.34-.17-1.34-1.44,0-2.92,0-5.85,0-8.77Z"/><path id="Path_52" data-name="Path 52" class="cls-1" d="M67.93,234v8.23a7.52,7.52,0,0,1,0,1.06c-.11.86-.24.92-1.69.92s-1.61-.06-1.71-.89a9.7,9.7,0,0,1,0-1.32V225.81c0-1.79,0-1.79-1.74-1.79-1.5,0-3,0-4.51,0-1.12,0-1.21-.13-1.25-1.22,0-.27,0-.53,0-.8a.75.75,0,0,1,.67-.82H73.86c.31,0,.62,0,.92,0a.62.62,0,0,1,.6.6,6.77,6.77,0,0,1,0,1.19c0,.84-.18,1-1.06,1-1.68,0-3.36,0-5,0-1.27,0-1.37.1-1.38,1.35,0,2.88,0,5.75,0,8.63"/><path id="Path_53" data-name="Path 53" class="cls-1" d="M150,28.33c0-2.52,0-5,0-7.57,0-1.39.15-1.51,1.52-1.53h.27c1.5,0,1.66.16,1.66,1.69q0,7.23,0,14.46a10.28,10.28,0,0,1-.58,3.52,5.61,5.61,0,0,1-5,3.83,13.26,13.26,0,0,1-2.52,0,5.37,5.37,0,0,1-4.94-4.13,9.47,9.47,0,0,1-.3-1.82c0-.55-.28-1.25.33-1.59A3.4,3.4,0,0,1,143,35c.4.09.45.52.47.87a8.15,8.15,0,0,0,.31,1.83,2.83,2.83,0,0,0,2.8,2.2,3,3,0,0,0,3.14-2,5.75,5.75,0,0,0,.34-2.21V28.33Z"/><path id="Path_54" data-name="Path 54" class="cls-1" d="M115.43,15.17c0-3.36,0-6.73,0-10.09,0-1.41.11-1.5,1.51-1.53h.4c1.25,0,1.38.16,1.42,1.37,0,.62,0,1.24,0,1.86v15c0,.4,0,.8,0,1.2a.71.71,0,0,0,.66.76h.09c.35,0,.7,0,1.06,0h8.23c.52,0,1.18-.16,1.46.39a3.09,3.09,0,0,1,0,2.2.56.56,0,0,1-.51.37,7,7,0,0,1-.92.06h-12l-.66,0a.79.79,0,0,1-.83-.73v-.12c0-.35,0-.71,0-1.06v-9.7"/><path id="Path_55" data-name="Path 55" class="cls-1" d="M137.65,31c0,3.31,0,6.63,0,9.94,0,1.46-.11,1.55-1.61,1.56l-.8,0a.82.82,0,0,1-.91-.74.43.43,0,0,1,0-.16c0-.31,0-.62,0-.93V21.13c0-1.85.11-1.95,1.95-1.89,1.24,0,1.37.14,1.38,1.38,0,3.45,0,6.9,0,10.35"/></g></g></g></svg>