<svg xmlns="http://www.w3.org/2000/svg" xmlns:xlink="http://www.w3.org/1999/xlink" viewBox="0 0 43.34 34.84"><defs><style>.cls-1{fill:none;}.cls-2{clip-path:url(#clip-path);}</style><clipPath id="clip-path" transform="translate(0.03 0)"><rect class="cls-1" width="43.3" height="34.83"/></clipPath></defs><g id="Layer_2" data-name="Layer 2"><g id="Layer_1-2" data-name="Layer 1"><g id="Group_121" data-name="Group 121"><g class="cls-2"><g id="Group_120" data-name="Group 120"><path id="Path_80" data-name="Path 80" d="M43.3,32.73a7.51,7.51,0,0,1-.34.94,1.76,1.76,0,0,1-2.24,1.06,1.72,1.72,0,0,1-1-1,3.06,3.06,0,0,1-.35-1.54c0-2.1.19-4.21.3-6.3.15-2.54.35-5.09.57-7.63,0-.31,0-.41-.37-.41a1.33,1.33,0,0,1-1.48-1.17,1.22,1.22,0,0,1,0-.33c0-2.47-.09-4.94.06-7.4a16.1,16.1,0,0,1,2.65-7.83c.18-.29.38-.56.58-.84s.27-.3.5-.21a.42.42,0,0,1,.26.44V17.05c0,1.64.24,3.26.34,4.89.13,2.15.26,4.3.41,6.46,0,.85,0,1.71.16,2.56Z" transform="translate(0.03 0)"/><path id="Path_81" data-name="Path 81" d="M22.33,2.27A14.34,14.34,0,1,1,8,16.61H8A14.31,14.31,0,0,1,22.27,2.27h.06m10.9,14.32a10.89,10.89,0,1,0-10.88,10.9h0a10.93,10.93,0,0,0,10.86-10.9" transform="translate(0.03 0)"/><path id="Path_82" data-name="Path 82" d="M1.94,29c.2-3.81.43-7.62.81-11.42,0-.42.09-.85.1-1.27a2,2,0,0,0-.92-1.88A4.14,4.14,0,0,1,0,10.24c.22-2.51.32-5,.48-7.55A3,3,0,0,1,.58,2a.57.57,0,0,1,.63-.45.58.58,0,0,1,.57.48,1.39,1.39,0,0,1,0,.41L1.48,9.18a.8.8,0,0,0,.4.86A.67.67,0,0,0,2.63,10a.87.87,0,0,0,.3-.75C3,7.84,3,6.47,3,5.11c0-.92.05-1.83.08-2.75,0-.5.28-.79.69-.79s.68.28.69.78c.06,2.17.11,4.34.17,6.52a3.88,3.88,0,0,0,.06.67.64.64,0,0,0,.68.57.66.66,0,0,0,.7-.55,2.31,2.31,0,0,0,0-.37L5.8,2.47a.25.25,0,0,0,0-.08c0-.5.2-.79.6-.82s.66.25.7.73,0,.93.08,1.4c.14,2.22.24,4.44.42,6.66a4.07,4.07,0,0,1-1.91,4.08,2,2,0,0,0-.93,2c.27,2.89.53,5.79.69,8.68q.19,3.53.35,7.05A3,3,0,0,1,5.28,34a1.69,1.69,0,0,1-2.3.64A1.64,1.64,0,0,1,2.34,34a3.24,3.24,0,0,1-.52-2c0-1,0-2,0-3h.12" transform="translate(0.03 0)"/><path id="Path_83" data-name="Path 83" d="M22.33,24.58a8,8,0,1,1,8-8h0a8,8,0,0,1-8,8" transform="translate(0.03 0)"/></g></g></g></g></g></svg>