<svg xmlns="http://www.w3.org/2000/svg" viewBox="0 0 32.83 32.83"><defs><style>.cls-1{fill:#0a0a0a;}</style></defs><g id="Layer_2" data-name="Layer 2"><g id="Layer_1-2" data-name="Layer 1"><g id="G._Design" data-name="G. Design"><rect id="Rectangle_260" data-name="Rectangle 260" class="cls-1" x="5.26" y="23.65" width="1.13" height="6.7" transform="translate(-17.39 12.03) rotate(-45)"/><rect id="Rectangle_261" data-name="Rectangle 261" class="cls-1" x="4.12" y="16.34" width="27.03" height="2.97" transform="translate(-7.44 17.69) rotate(-45)"/><rect id="Rectangle_262" data-name="Rectangle 262" class="cls-1" x="1.48" y="13.7" width="27.03" height="2.97" transform="translate(-6.35 15.05) rotate(-45)"/><path id="Path_113" data-name="Path 113" class="cls-1" d="M31.08,6.48a3.35,3.35,0,1,0-4.74-4.73h0l-1,1,4.74,4.73Z"/><rect id="Rectangle_263" data-name="Rectangle 263" class="cls-1" x="26.25" y="2.66" width="1.13" height="6.7" transform="translate(3.6 20.72) rotate(-45)"/><path id="Path_114" data-name="Path 114" class="cls-1" d="M.78,31.57A.38.38,0,0,0,1,32a.3.3,0,0,0,.23,0L7.15,30.2,2.62,25.68Z"/><path id="Path_115" data-name="Path 115" class="cls-1" d="M3.36,8.32a.39.39,0,0,1,.54,0,.38.38,0,0,1,0,.54v0l-1.8,1.8L3.47,12l1.8-1.8a.38.38,0,1,1,.55.52v0L4,12.56l1.37,1.37,1.8-1.8a.38.38,0,0,1,.54,0,.39.39,0,0,1,0,.54h0l-1.8,1.8,1.37,1.37L9.08,14a.38.38,0,0,1,.54,0,.39.39,0,0,1,0,.54h0l-1.8,1.8,1.4,1.4,6.49-6.49L6.33,1.91.11,8.13a.38.38,0,0,0,0,.54l1.45,1.45Z"/><path id="Path_116" data-name="Path 116" class="cls-1" d="M17.78,9.23,8.67.11a.38.38,0,0,0-.54,0L6.87,1.37l9.39,9.38Z"/><path id="Path_117" data-name="Path 117" class="cls-1" d="M32.71,24.16,23.6,15l-1.53,1.53L31.46,26l1.26-1.25A.39.39,0,0,0,32.71,24.16Z"/><path id="Path_118" data-name="Path 118" class="cls-1" d="M15,23.6l1.4,1.4,1.8-1.8a.39.39,0,0,1,.54,0,.38.38,0,0,1,0,.54l0,0L17,25.54l1.37,1.37,1.8-1.8a.38.38,0,0,1,.56.52l0,0-1.8,1.8,1.37,1.37,1.8-1.8a.38.38,0,0,1,.54,0,.39.39,0,0,1,0,.54l0,0-1.8,1.8,1.37,1.37,1.8-1.8a.38.38,0,0,1,.54,0,.39.39,0,0,1,0,.54l0,0-1.8,1.8,1.45,1.44a.38.38,0,0,0,.54,0l6.22-6.22-9.39-9.38Z"/></g></g></g></svg>