<svg xmlns="http://www.w3.org/2000/svg" viewBox="0 0 37 37"><defs><style>.cls-1{fill:#fff;fill-opacity:0;}</style></defs><g id="Layer_2" data-name="Layer 2"><g id="Layer_1-2" data-name="Layer 1"><g id="Icon_3" data-name="Icon 3"><rect id="Area_ICON:feather_youtube_SIZE:MEDIUM_STATE:DEFAULT_STYLE:STYLE3_" data-name="Area ICON:feather youtube SIZE:MEDIUM STATE:DEFAULT STYLE:STYLE3 " class="cls-1" width="37" height="37"/><path d="M35,10a4.31,4.31,0,0,0-3-3.1c-2.67-.65-13.34-.65-13.34-.65S8,6.26,5.33,7a4.29,4.29,0,0,0-3,3.1,45,45,0,0,0-.72,8.2,45.89,45.89,0,0,0,.72,8.27,4.31,4.31,0,0,0,3,3c2.67.71,13.34.71,13.34.71s10.67,0,13.34-.71a4.34,4.34,0,0,0,3-3.1,45.47,45.47,0,0,0,.71-8.15A44.14,44.14,0,0,0,35,10ZM15.18,23.35V13.21l8.92,5.07Z"/></g></g></g></svg>